<?xml version="1.0" encoding="UTF-8"?><svg id="Layer_2" xmlns="http://www.w3.org/2000/svg" viewBox="0 0 979.33 189.35"><defs><style>.cls-1{fill:#787878;}.cls-1,.cls-2,.cls-3{stroke-width:0px;}.cls-2{fill:#231f20;}.cls-3{fill:#fff;}</style></defs><g id="Layer_1-2"><rect class="cls-2" width="979.33" height="189.35"/><path class="cls-3" d="m260.13,139.29c1.01,1.85,5.37,3.39,9.04,2.1s5.24-4.91,4.22-6.76c-1.01-1.85-3.09.12-13.26,4.66"/><path class="cls-3" d="m179.57,139.29c-1.01,1.85-5.37,3.39-9.04,2.1-3.67-1.29-5.24-4.91-4.22-6.76s3.09.12,13.26,4.66"/><path class="cls-1" d="m343.94,99.66l-35.49-24.31-6.71-31.02-44.77,24.63h-.23c-5.19,0-10.36-.39-15.48-1.18-14.18-2.19-28.62-2.19-42.81,0h0c-5.12.78-10.29,1.18-15.48,1.18h-.23l-44.79-24.63-6.71,31.02-35.49,24.31,41.26,33.9s-11.83-41.58,23.66-33.26c35.49,8.33,59.16,44.77,59.16,44.77h0s23.66-36.46,59.16-44.77c35.49-8.33,23.66,33.26,23.66,33.26l41.26-33.9h.02Z"/><path class="cls-3" d="m424.13,98.95c0,4.22-.83,7.06-2.47,8.51-1.64,1.45-4.59,2.19-8.88,2.19h-28.02c-4.64,0-7.68-.83-9.13-2.47s-2.19-4.8-2.19-9.48l9.32-1.94v5.35h32.06v-10.36h-28.28c-4.27,0-7.22-.74-8.83-2.19-1.61-1.45-2.42-4.31-2.42-8.51v-5c0-4.22.81-7.06,2.42-8.51,1.61-1.45,4.54-2.19,8.83-2.19h25.74c4.34,0,7.29.74,8.88,2.24s2.38,4.38,2.38,8.65l-9.32,2.19v-5.19h-29.68v9.76h28.28c4.27,0,7.24.74,8.88,2.19,1.64,1.48,2.47,4.31,2.47,8.51v6.23l-.02.02Z"/><path class="cls-3" d="m452.32,109.65h-10.54v-45.3h10.54v45.32-.02Z"/><path class="cls-3" d="m515.81,109.65h-44.53v-45.3h10.54v36.81h34v8.51-.02Z"/><path class="cls-3" d="m564.82,64.35l-24.93,45.32h-7.29l-26.18-45.32h12.04l18.36,32.75,17.48-32.75h10.54-.02Z"/><path class="cls-3" d="m619.62,109.65h-46.82v-45.3h46.38v7.73h-35.84v10.1h20.9v7.73h-20.9v11.23h36.28s0,8.51,0,8.51Z"/><path class="cls-3" d="m688.64,109.65h-15.11l-18.27-17.14h-10.01v17.14h-10.36v-45.3h38.82c6.78,0,10.19,2.93,10.19,8.79v10.63c0,4.38-1.75,7.1-5.26,8.16-1.34.42-4.98.62-10.89.62l20.9,17.14-.02-.05Zm-14.92-28.46v-5.44c0-1.52-.44-2.51-1.31-2.98-.65-.42-1.78-.62-3.44-.62h-23.71v12.64h23.71c1.64,0,2.79-.21,3.44-.62.88-.46,1.31-1.45,1.31-2.98Z"/><path class="cls-3" d="m746.97,72.24h-35.31v11.95h19.05v8.26h-19.05v17.21h-10.54v-45.3h45.85v7.91-.02Z"/><path class="cls-3" d="m810.72,98.95c0,4.22-.81,7.06-2.42,8.51-1.61,1.45-4.54,2.19-8.83,2.19h-33.37c-4.27,0-7.22-.74-8.83-2.19-1.61-1.45-2.42-4.31-2.42-8.51v-23.89c0-4.22.81-7.06,2.42-8.51,1.61-1.45,4.54-2.19,8.83-2.19h33.37c4.27,0,7.22.74,8.83,2.19,1.61,1.45,2.42,4.31,2.42,8.51v23.89Zm-10.54,2.19v-28.71h-34.78v28.71h34.78Z"/><path class="cls-3" d="m878.78,109.65h-14.32l-16.61-17.57-15.29,17.57h-12.48l21.52-23.27-21.86-22.05h13.98l14.48,15.36,13.79-15.36h12.13l-19.77,20.83,24.42,24.49h0Z"/><path class="cls-1" d="m542.47,143.53h-3.67v-10.63c0-.37.05-.97.14-1.75-.21.42-.53,1.01-.99,1.78l-6.41,8.53h-.78l-6.41-8.58c-.46-.62-.81-1.2-1.04-1.75.07.69.09,1.25.09,1.68v10.7h-3.21v-17.09h3.21l8.05,10.33,7.89-10.33h3.18v17.09l-.05.02Z"/><path class="cls-1" d="m569.25,143.53h-4.47l-2.05-3.74h-10.82l-1.98,3.74h-3.97l9.66-17.09h3.85l9.8,17.09h-.02Zm-8.19-6.83l-3.67-6.94-3.81,6.94h7.47,0Z"/><path class="cls-1" d="m593.42,143.53h-5.7l-6.9-6.46h-3.78v6.46h-3.9v-17.09h14.62c2.56,0,3.85,1.11,3.85,3.32v4.01c0,1.66-.67,2.68-1.98,3.07-.51.16-1.87.23-4.11.23l7.89,6.46h0Zm-5.63-10.72v-2.05c0-.58-.16-.95-.51-1.13-.25-.16-.67-.23-1.29-.23h-8.95v4.77h8.95c.62,0,1.04-.07,1.29-.23.32-.18.51-.55.51-1.13Z"/><path class="cls-1" d="m618.74,143.53h-6.39l-10.22-7.52v7.52h-4.01v-17.09h4.01v7.13l9.48-7.13h5.77l-11.32,8.05,12.71,9.04h-.02Z"/><path class="cls-1" d="m640.47,143.53h-17.64v-17.09h17.48v2.91h-13.52v3.81h7.89v2.91h-7.89v4.24h13.68v3.23Z"/><path class="cls-1" d="m662.03,129.51h-7.89v14.05h-3.97v-14.05h-7.84v-3.04h19.7v3.04Z"/><path class="cls-1" d="m669.29,143.53h-3.97v-17.09h3.97v17.09Z"/><path class="cls-1" d="m696.51,143.53h-2.72l-12.55-10.56c-.53-.44-1.01-.9-1.43-1.38.12,1.11.16,1.98.16,2.61v9.34h-3.57v-17.09h2.72l12.02,10.06c.85.74,1.52,1.34,1.96,1.85-.12-1.59-.16-2.56-.16-2.95v-8.97h3.57v17.11Z"/><path class="cls-1" d="m723.52,139.49c0,1.59-.3,2.65-.9,3.21-.6.55-1.71.83-3.32.83h-11.79c-1.61,0-2.72-.28-3.32-.83s-.9-1.61-.9-3.21v-8.99c0-1.59.3-2.65.9-3.21.6-.55,1.71-.83,3.32-.83h11.79c1.71,0,2.84.3,3.39.88s.85,1.71.85,3.39l-3.87.69v-1.91h-12.41v10.82h12.41v-3.81h-6.48v-2.91h10.36v5.88h-.02Z"/></g></svg>