<svg width="24" height="24" viewBox="0 0 24 24" fill="none" xmlns="http://www.w3.org/2000/svg">
  <path d="M21.71 8.71C22.1 8.32 22.1 7.69 21.71 7.3L16.7 2.29C16.31 1.9 15.68 1.9 15.29 2.29L13.29 4.29C12.9 4.68 12.9 5.31 13.29 5.7L15.29 7.7L9.29 13.7L7.29 11.7C6.9 11.31 6.27 11.31 5.88 11.7L3.88 13.7C3.49 14.09 3.49 14.72 3.88 15.11L8.89 20.12C9.28 20.51 9.91 20.51 10.3 20.12L12.3 18.12C12.69 17.73 12.69 17.1 12.3 16.71L10.3 14.71L16.3 8.71L18.3 10.71C18.69 11.1 19.32 11.1 19.71 10.71L21.71 8.71Z" fill="currentColor"/>
  <circle cx="12" cy="12" r="1.5" fill="currentColor"/>
</svg>