<?xml version="1.0" encoding="UTF-8"?><svg id="Layer_2" xmlns="http://www.w3.org/2000/svg" viewBox="250 50 500 350"><defs><style>.cls-1{fill:#787878;}.cls-1,.cls-3{stroke-width:0px;}.cls-3{fill:#fd410d;}</style></defs><g id="Layer_1-2"><path class="cls-3" d="m617.52,369.1c3.19,5.86,17.06,10.74,28.69,6.66,11.63-4.08,16.6-15.58,13.41-21.44-3.19-5.86-9.79.39-42.1,14.78Z"/><path class="cls-3" d="m361.8,369.1c-3.19,5.86-17.06,10.74-28.69,6.66-11.63-4.08-16.6-15.58-13.41-21.44,3.19-5.86,9.79.39,42.1,14.78Z"/><path class="cls-1" d="m883.57,244.27l-112.68-77.15-21.32-98.47-132.31,72.77c-37.86-3.13-81.34-4.91-127.59-4.91s-89.73,1.78-127.59,4.91l-132.31-72.77-21.32,98.47-112.68,77.15,130.95,107.6s-37.56-131.97,75.12-105.57c112.68,26.39,187.8,142.12,187.8,142.12l.03-.08.03.08s75.12-115.73,187.8-142.12c112.68-26.39,75.12,105.57,75.12,105.57l130.95-107.6Z"/></g></svg>